<svg id="svg" version="1.1" xmlns="http://www.w3.org/2000/svg" xmlns:xlink="http://www.w3.org/1999/xlink" width="400" height="400" viewBox="0, 0, 400,400"><g id="svgg"><path id="path0" d="M340.816 25.668 C 336.784 26.244,335.097 27.174,333.469 29.720 C 331.798 32.332,331.304 32.536,324.600 33.390 C 315.373 34.565,312.381 36.194,313.594 39.385 C 315.119 43.396,332.172 41.801,335.859 37.302 C 337.631 35.140,339.685 34.155,343.575 33.604 C 349.419 32.775,351.782 29.857,348.870 27.067 C 346.990 25.266,345.473 25.003,340.816 25.668 M136.623 37.289 C 135.738 38.552,135.772 38.605,138.100 39.593 C 140.835 40.755,141.862 41.739,142.196 43.520 C 142.864 47.081,144.364 48.461,149.431 50.181 C 153.690 51.626,153.496 51.631,157.000 49.966 C 158.320 49.339,160.712 48.453,162.316 47.997 C 169.097 46.068,166.635 42.758,156.919 40.741 C 153.922 40.118,150.555 39.269,149.435 38.852 C 148.316 38.436,146.590 37.969,145.600 37.814 C 144.610 37.659,142.912 37.278,141.827 36.966 C 138.928 36.134,137.364 36.231,136.623 37.289 M299.366 42.587 C 295.250 43.334,293.209 44.927,293.200 47.400 C 293.193 49.229,291.758 50.670,288.826 51.790 C 284.637 53.391,284.372 54.124,283.386 66.854 C 282.581 77.250,282.187 78.687,279.379 81.473 C 276.672 84.158,276.279 85.433,275.207 95.000 C 273.994 105.831,273.367 108.777,271.702 111.489 C 267.983 117.548,267.495 119.057,266.814 126.600 C 265.852 137.244,264.682 141.705,262.138 144.425 C 259.480 147.267,258.889 150.243,258.073 164.916 C 257.762 170.522,257.910 171.158,259.827 172.421 C 263.807 175.045,265.592 172.127,267.426 160.000 C 267.882 156.982,269.167 154.312,271.196 152.167 C 273.505 149.726,273.893 148.538,274.453 142.200 C 274.987 136.155,277.069 124.649,277.963 122.800 C 278.335 122.030,279.110 120.590,279.685 119.600 C 281.692 116.143,282.380 112.799,283.424 101.421 C 284.640 88.164,285.317 85.707,288.252 83.895 C 289.778 82.954,290.874 77.132,291.586 66.200 C 292.106 58.220,292.203 57.949,295.959 54.091 C 299.312 50.646,299.914 50.342,305.600 49.214 C 310.261 48.290,312.529 45.866,310.854 43.600 C 309.661 41.985,304.961 41.571,299.366 42.587 M118.962 46.046 C 118.270 46.814,118.207 47.504,118.275 53.542 C 118.398 64.520,118.999 65.393,125.641 64.257 C 131.038 63.333,131.415 62.965,131.341 58.688 C 131.266 54.309,130.770 53.305,127.940 51.800 C 125.126 50.304,124.120 49.402,123.156 47.513 C 121.952 45.154,120.289 44.573,118.962 46.046 M77.579 53.826 C 77.293 54.170,76.923 55.457,76.756 56.686 C 76.402 59.296,76.070 59.586,73.426 59.594 C 70.772 59.602,68.450 60.798,66.793 63.010 C 66.047 64.005,64.136 65.887,62.548 67.191 C 57.733 71.143,59.068 72.901,66.739 72.712 C 71.920 72.584,72.671 72.123,73.581 68.510 C 73.824 67.546,74.647 65.531,75.411 64.032 C 76.175 62.533,76.800 60.996,76.800 60.616 C 76.800 60.236,77.129 59.839,77.531 59.734 C 77.932 59.629,78.573 59.016,78.953 58.371 C 79.334 57.727,79.796 57.200,79.979 57.200 C 80.484 57.200,80.848 55.332,80.564 54.200 C 80.268 53.021,78.437 52.792,77.579 53.826 M95.726 58.100 C 94.304 59.602,93.801 61.028,93.223 65.200 C 92.994 66.850,92.698 68.591,92.565 69.070 C 92.264 70.151,94.040 71.200,96.172 71.200 C 102.656 71.200,107.043 64.411,104.193 58.787 L 103.187 56.800 100.072 56.800 C 97.077 56.800,96.910 56.850,95.726 58.100 M280.400 99.578 C 280.400 104.635,279.221 107.807,278.013 106.000 C 276.437 103.642,278.049 95.012,280.100 94.827 C 280.265 94.812,280.400 96.950,280.400 99.578 M193.800 117.645 C 181.298 117.902,178.990 118.088,174.178 119.224 C 171.961 119.747,170.180 121.677,171.461 122.168 C 175.612 123.761,180.036 124.003,208.600 124.201 C 221.800 124.293,235.030 124.565,238.000 124.807 C 254.171 126.121,254.417 126.103,256.016 123.481 C 257.655 120.793,256.525 118.294,253.459 117.830 C 251.267 117.499,207.555 117.363,193.800 117.645 M253.468 119.424 C 254.702 119.673,255.151 121.835,254.138 122.650 C 253.512 123.154,252.034 123.205,244.400 122.986 C 239.450 122.844,225.320 122.664,213.000 122.587 C 189.126 122.438,184.985 122.258,184.638 121.355 C 184.521 121.050,184.610 120.800,184.836 120.800 C 185.062 120.800,185.144 120.632,185.017 120.428 C 184.256 119.197,247.723 118.267,253.468 119.424 M144.058 126.028 C 137.701 128.574,140.531 132.652,148.575 132.536 C 158.393 132.394,163.687 129.892,159.998 127.138 C 158.163 125.768,146.700 124.970,144.058 126.028 M272.444 129.735 C 272.474 135.534,272.008 138.335,270.864 139.235 L 269.834 140.045 269.479 139.123 C 268.661 137.001,269.562 127.899,270.709 126.694 C 272.092 125.241,272.423 125.823,272.444 129.735 M289.733 126.600 C 284.460 127.746,284.236 128.876,288.500 132.821 C 290.095 134.297,291.940 136.238,292.600 137.135 C 293.260 138.031,294.610 139.212,295.600 139.759 C 304.590 144.723,308.431 152.820,304.055 157.580 C 302.965 158.766,301.811 160.592,301.269 161.990 C 300.550 163.845,299.844 164.803,298.103 166.288 C 296.871 167.340,294.678 169.396,293.231 170.859 C 290.156 173.965,289.285 174.455,284.786 175.603 C 280.302 176.748,278.988 177.337,277.094 179.048 C 272.628 183.083,270.623 183.267,228.600 183.493 C 179.129 183.759,156.464 182.595,149.200 179.413 C 145.747 177.901,140.669 176.566,134.800 175.628 C 123.279 173.786,120.617 172.820,118.491 169.713 C 117.771 168.661,116.270 166.810,115.156 165.600 C 110.490 160.534,109.697 155.203,113.056 151.486 C 116.918 147.211,115.956 138.855,111.704 139.737 C 106.301 140.858,101.778 142.973,99.346 145.515 C 97.997 146.925,96.147 148.573,95.236 149.176 C 93.294 150.462,91.805 152.354,91.155 154.365 C 90.570 156.172,88.938 159.445,87.954 160.780 C 86.973 162.113,86.936 163.251,87.771 166.371 C 89.310 172.123,90.775 173.760,96.647 176.292 C 98.601 177.134,101.161 178.583,102.335 179.511 C 105.003 181.620,106.860 182.148,115.400 183.224 C 125.639 184.515,129.736 185.707,134.659 188.828 C 136.652 190.091,140.715 190.729,151.013 191.394 C 168.594 192.531,176.492 193.458,187.070 195.623 C 199.108 198.087,225.812 197.965,237.600 195.393 C 240.776 194.699,243.045 194.339,248.704 193.631 C 257.110 192.578,266.377 191.704,274.335 191.214 C 284.096 190.612,285.440 190.302,289.242 187.772 C 292.447 185.639,294.469 184.867,302.306 182.787 C 305.744 181.874,306.679 181.236,308.926 178.266 C 309.545 177.447,311.005 176.240,312.170 175.582 C 315.005 173.982,315.376 173.508,316.972 169.443 C 317.726 167.522,318.778 165.376,319.309 164.675 C 323.005 159.797,323.030 154.839,319.395 147.600 C 314.468 137.789,312.292 135.393,305.032 131.780 C 304.169 131.351,302.729 130.221,301.832 129.269 C 298.736 125.985,295.672 125.309,289.733 126.600 M153.466 127.662 C 156.283 128.365,155.282 130.139,151.675 130.835 C 146.060 131.917,143.200 131.354,143.200 129.167 C 143.200 126.891,147.725 126.227,153.466 127.662 M297.456 127.714 C 297.927 127.981,299.021 129.100,299.889 130.200 C 300.944 131.539,301.984 132.379,303.033 132.740 C 309.409 134.937,314.825 140.525,317.337 147.497 C 317.911 149.090,318.745 151.108,319.190 151.981 C 320.514 154.575,319.934 159.372,317.782 163.631 C 317.273 164.638,316.389 166.906,315.818 168.671 C 314.738 172.005,313.964 173.022,311.600 174.210 C 309.573 175.228,308.520 176.128,306.954 178.179 C 305.139 180.556,304.396 180.901,297.347 182.635 C 292.462 183.838,290.579 184.526,286.800 186.493 C 281.179 189.418,279.561 189.745,266.521 190.596 C 257.938 191.156,246.854 192.099,235.800 193.210 C 226.273 194.167,222.055 194.388,213.193 194.394 C 203.800 194.400,194.377 193.956,187.200 193.168 C 176.849 192.032,171.349 191.553,160.074 190.803 C 142.445 189.631,140.352 189.214,135.516 185.911 C 133.814 184.749,128.818 183.712,117.533 182.180 C 110.038 181.162,107.606 180.465,104.762 178.517 C 102.322 176.845,100.272 175.863,97.000 174.801 C 92.764 173.425,91.188 171.617,90.079 166.863 C 89.176 162.989,89.180 162.924,90.581 159.800 C 91.074 158.700,91.806 156.745,92.208 155.456 C 93.013 152.869,94.452 151.173,97.174 149.600 C 98.126 149.050,99.602 147.684,100.452 146.564 C 102.246 144.204,102.902 143.854,107.920 142.580 C 114.839 140.824,117.088 145.357,111.800 150.400 C 107.934 154.086,108.330 161.750,112.568 165.270 C 113.277 165.858,114.643 167.388,115.605 168.670 C 119.734 174.173,120.370 174.538,128.000 175.794 C 135.839 177.085,139.322 178.036,142.600 179.781 C 149.944 183.690,162.279 184.442,220.600 184.536 C 270.488 184.616,274.602 184.374,278.039 181.163 C 280.934 178.459,281.829 177.956,286.140 176.610 C 290.926 175.116,291.646 174.686,295.400 171.072 C 296.720 169.801,298.615 168.005,299.612 167.081 C 300.609 166.156,301.830 164.535,302.325 163.477 C 302.820 162.420,303.916 160.800,304.761 159.877 C 307.901 156.447,308.447 154.439,307.369 150.282 C 306.152 145.583,304.525 143.606,298.678 139.719 C 296.753 138.439,295.323 137.057,293.901 135.102 C 292.785 133.568,291.176 131.808,290.325 131.192 L 288.778 130.071 289.689 129.054 C 291.161 127.410,295.579 126.649,297.456 127.714 M185.600 135.046 C 180.603 135.465,177.112 136.191,174.001 137.456 C 168.123 139.848,164.461 140.648,151.530 142.368 C 143.984 143.372,141.991 144.949,144.053 148.286 C 144.790 149.478,146.860 150.993,147.249 150.626 C 147.564 150.329,158.890 149.207,165.600 148.808 C 169.450 148.579,174.310 148.215,176.400 147.999 C 185.724 147.038,195.639 146.803,201.569 147.404 C 204.742 147.726,210.502 148.170,214.369 148.391 C 230.596 149.318,237.371 150.157,241.942 151.806 C 245.657 153.146,246.413 152.926,248.462 149.909 C 251.650 145.214,250.503 139.991,245.695 137.307 C 242.400 135.468,199.713 133.862,185.600 135.046 M228.695 137.819 C 230.728 138.138,233.698 138.750,235.295 139.178 C 236.893 139.606,239.784 140.262,241.721 140.637 C 247.801 141.813,250.053 145.704,246.297 148.545 C 245.018 149.512,244.960 149.518,242.121 148.975 C 240.537 148.673,234.687 148.061,229.121 147.615 C 218.925 146.799,211.026 145.445,209.640 144.275 C 207.266 142.272,197.194 138.890,193.200 138.755 C 189.697 138.636,199.354 137.538,206.600 137.231 C 216.149 136.826,223.657 137.026,228.695 137.819 M128.945 140.676 C 127.456 140.968,126.450 153.330,127.639 156.740 C 128.373 158.844,130.168 158.546,130.753 156.223 C 131.599 152.859,131.045 140.247,130.059 140.454 C 129.917 140.484,129.415 140.584,128.945 140.676 M166.295 143.611 C 175.265 145.067,169.089 147.132,153.708 147.820 C 146.871 148.126,146.000 147.963,146.000 146.380 C 146.000 144.875,146.957 144.568,153.251 144.052 C 156.633 143.774,159.850 143.496,160.400 143.434 C 162.593 143.184,163.907 143.223,166.295 143.611 M285.720 147.700 C 284.598 148.933,281.868 153.055,280.886 155.000 C 280.442 155.880,279.625 157.023,279.071 157.540 C 277.658 158.858,277.058 160.518,277.378 162.224 C 278.138 166.272,287.525 165.263,289.763 160.893 C 290.297 159.852,291.378 158.101,292.166 157.001 C 294.105 154.298,294.012 153.687,291.100 150.005 C 288.341 146.517,287.230 146.041,285.720 147.700 M289.407 151.900 C 291.065 153.784,290.330 156.502,287.438 159.179 L 286.380 160.158 285.490 159.268 C 284.761 158.538,284.600 157.929,284.601 155.889 C 284.602 151.485,287.167 149.356,289.407 151.900 M180.400 158.039 C 151.390 159.532,148.787 160.341,153.195 166.497 C 158.196 173.480,158.336 173.500,205.676 173.860 L 237.951 174.105 240.640 173.156 C 244.415 171.823,245.256 170.487,243.616 168.430 C 237.542 160.812,235.941 160.129,222.000 159.209 C 196.606 157.535,192.458 157.418,180.400 158.039 M263.886 162.320 C 263.662 164.327,263.694 164.281,262.400 164.461 C 260.769 164.688,260.678 160.517,262.281 159.030 L 263.399 157.993 263.739 159.297 C 263.925 160.013,263.992 161.374,263.886 162.320 M326.974 178.094 C 325.499 181.227,323.576 183.396,321.209 184.595 C 319.406 185.509,316.532 188.259,315.642 189.922 C 314.977 191.163,309.853 193.507,306.200 194.240 C 302.802 194.922,301.201 195.691,299.593 197.415 C 296.699 200.517,291.094 201.645,273.800 202.606 C 267.664 202.946,263.273 203.808,259.307 205.450 C 250.385 209.143,239.488 209.967,203.400 209.678 C 179.727 209.489,173.686 208.851,163.530 205.468 C 157.668 203.516,155.076 203.062,146.000 202.402 C 129.561 201.206,124.975 200.359,121.322 197.846 C 120.246 197.106,118.607 196.114,117.679 195.640 C 116.042 194.805,114.982 194.617,105.200 193.425 C 98.564 192.616,95.803 191.599,92.510 188.748 C 89.494 186.137,88.391 185.770,84.653 186.129 C 78.968 186.675,78.065 188.623,77.208 202.200 C 76.378 215.338,75.069 222.991,72.828 227.800 C 67.987 238.191,68.057 269.657,72.940 278.081 C 74.647 281.025,75.141 283.149,77.007 295.573 C 78.196 303.486,78.442 304.117,81.421 306.890 C 82.951 308.313,83.816 309.530,84.391 311.068 C 85.856 314.984,86.799 316.407,90.524 320.327 C 92.547 322.457,94.817 325.100,95.566 326.200 C 96.393 327.414,97.886 328.823,99.364 329.785 C 102.499 331.825,103.630 332.738,106.800 335.786 C 109.428 338.314,111.285 339.472,114.200 340.403 C 115.284 340.749,116.717 341.851,118.641 343.816 C 121.229 346.460,121.691 346.762,123.820 347.204 C 130.754 348.644,133.913 350.043,136.121 352.655 C 137.415 354.185,140.005 355.109,146.529 356.368 C 152.975 357.612,154.895 358.340,157.530 360.542 C 160.348 362.896,162.115 363.490,168.400 364.199 C 181.007 365.619,186.168 366.603,193.600 369.002 C 203.426 372.174,222.411 371.803,232.600 368.240 C 237.157 366.647,242.978 365.578,253.550 364.393 C 261.890 363.458,262.806 363.173,265.012 360.823 C 267.428 358.251,269.965 357.211,277.719 355.612 C 279.786 355.186,280.306 354.858,282.519 352.584 C 284.446 350.603,285.714 349.716,288.200 348.609 C 293.727 346.149,294.931 345.361,296.800 342.980 C 298.243 341.142,299.195 340.400,301.600 339.243 C 304.459 337.868,304.657 337.683,305.800 335.326 C 307.230 332.378,307.961 331.534,310.230 330.204 C 312.050 329.137,313.186 327.214,314.604 322.800 C 315.710 319.361,317.435 316.210,318.878 314.995 C 321.484 312.803,321.676 312.226,323.200 302.016 C 324.201 295.310,325.349 291.412,327.150 288.600 C 329.986 284.175,330.556 280.804,331.212 264.600 C 332.048 243.911,333.278 233.699,335.932 225.400 C 336.614 223.265,336.858 222.116,337.414 218.400 C 337.496 217.850,337.750 216.230,337.979 214.800 C 339.069 207.972,338.052 197.141,335.875 192.400 C 334.048 188.423,332.957 185.228,332.215 181.684 C 330.848 175.158,328.963 173.866,326.974 178.094 " stroke="none" fill="#9f7a57" fill-rule="evenodd"></path><path id="path1" d="M341.200 3.854 C 339.734 4.448,337.599 6.986,337.560 8.181 C 337.538 8.852,337.395 9.850,337.243 10.400 L 336.966 11.400 328.236 11.611 L 319.506 11.823 318.638 12.911 C 318.161 13.510,317.448 14.000,317.054 14.000 C 316.103 14.000,314.000 16.138,314.000 17.106 C 314.000 18.060,311.773 18.800,308.903 18.800 C 307.609 18.800,306.721 19.013,306.400 19.400 C 306.041 19.832,305.093 20.000,303.011 20.000 C 299.818 20.000,297.600 20.584,297.600 21.425 C 297.600 21.726,297.195 22.185,296.700 22.446 C 295.492 23.082,295.213 23.569,295.206 25.056 C 295.193 27.694,294.527 27.968,287.400 28.263 L 281.000 28.529 279.700 29.824 C 278.501 31.020,278.400 31.321,278.400 33.708 L 278.400 36.295 276.900 36.543 C 276.075 36.680,274.744 36.793,273.941 36.796 C 271.754 36.802,270.000 38.925,270.000 41.565 C 270.000 42.799,269.782 43.683,269.400 44.000 C 268.922 44.397,268.800 45.574,268.800 49.787 C 268.800 55.569,268.492 56.400,266.349 56.400 C 264.869 56.400,264.400 57.136,264.400 59.458 C 264.400 61.353,264.293 61.607,263.300 62.083 C 261.801 62.801,261.666 63.991,261.630 76.717 C 261.596 88.675,261.646 88.488,258.357 88.965 C 256.711 89.203,256.385 89.433,255.309 91.116 C 254.129 92.961,253.876 94.034,253.338 99.487 C 252.933 103.587,259.008 103.180,197.805 103.209 L 143.854 103.234 141.127 100.528 L 138.400 97.821 138.400 89.511 L 138.400 81.200 140.751 81.200 C 142.353 81.200,143.261 81.009,143.600 80.600 C 143.974 80.149,144.982 80.000,147.662 80.000 C 153.283 80.000,154.440 79.180,154.937 74.845 C 155.252 72.104,155.446 72.025,162.618 71.732 L 169.000 71.471 170.300 70.176 C 171.499 68.980,171.600 68.679,171.600 66.291 L 171.600 63.702 178.035 63.411 L 184.470 63.119 186.235 61.428 C 187.563 60.156,188.000 59.436,188.000 58.523 C 188.000 56.313,189.209 55.342,192.343 55.033 C 196.837 54.590,196.600 55.424,196.600 40.057 C 196.600 25.225,196.534 24.673,194.515 22.594 C 192.751 20.778,189.424 20.021,183.149 20.008 C 180.387 20.002,179.170 19.845,178.844 19.453 C 178.474 19.008,174.531 18.868,157.695 18.704 C 135.570 18.489,135.600 18.491,135.600 16.819 C 135.600 15.293,134.561 14.548,132.038 14.265 C 130.652 14.110,129.557 13.723,128.987 13.188 C 127.621 11.905,124.262 11.617,110.560 11.608 C 97.744 11.600,95.845 11.798,95.403 13.190 C 95.144 14.007,94.064 14.387,91.980 14.395 C 90.263 14.401,89.600 14.986,89.600 16.493 C 89.600 18.489,87.757 19.832,84.615 20.126 C 80.802 20.482,78.733 22.471,78.475 26.030 L 78.304 28.400 75.512 28.400 C 71.493 28.400,70.000 29.852,70.000 33.760 L 70.000 36.400 68.500 36.403 C 64.544 36.413,62.716 36.882,62.046 38.060 C 61.482 39.052,61.164 39.195,59.533 39.197 C 57.288 39.201,54.480 41.509,54.030 43.721 C 53.832 44.698,53.537 45.026,52.785 45.108 C 49.995 45.413,49.060 45.748,47.732 46.913 C 46.127 48.322,45.200 50.162,45.200 51.937 C 45.200 53.179,44.262 53.600,41.490 53.600 C 39.339 53.600,36.800 56.741,36.800 59.403 L 36.800 61.521 34.302 61.811 C 32.115 62.065,31.611 62.295,30.245 63.661 L 28.685 65.221 28.655 70.511 C 28.589 82.549,30.017 86.000,35.066 86.000 C 35.676 86.000,36.525 86.477,37.200 87.200 L 38.321 88.400 46.160 88.400 L 54.000 88.400 54.003 90.500 C 54.006 92.441,54.135 92.726,55.711 94.275 L 57.417 95.949 64.608 96.275 C 68.564 96.454,74.557 96.510,77.926 96.400 L 84.052 96.200 86.026 94.130 C 87.802 92.267,88.000 91.876,88.000 90.230 L 88.000 88.400 93.000 88.400 L 98.000 88.400 98.000 89.643 C 98.000 90.617,98.432 91.291,100.000 92.763 C 101.560 94.227,102.000 94.912,102.000 95.871 C 102.000 96.548,102.270 97.326,102.600 97.600 C 103.105 98.019,103.200 99.729,103.200 108.387 C 103.200 119.778,103.239 119.606,100.543 120.178 C 98.871 120.533,95.955 123.527,95.189 125.675 C 94.441 127.774,93.345 128.386,90.319 128.394 C 87.681 128.401,86.263 128.939,85.396 130.262 C 84.958 130.930,84.405 131.200,83.471 131.200 C 81.836 131.200,81.199 131.812,81.204 133.380 C 81.206 134.260,80.863 134.883,79.970 135.617 C 79.227 136.228,78.621 137.187,78.452 138.017 C 78.223 139.148,77.969 139.424,77.059 139.529 C 74.296 139.850,70.009 145.512,70.002 148.851 C 70.001 149.429,69.730 150.126,69.400 150.400 C 69.007 150.726,68.800 151.618,68.800 152.987 C 68.800 155.330,68.031 156.400,66.349 156.400 C 64.869 156.400,64.400 157.136,64.400 159.458 C 64.400 161.351,64.293 161.608,63.303 162.082 C 61.779 162.813,61.701 163.456,61.647 175.876 C 61.619 182.465,61.446 186.848,61.210 186.994 C 60.995 187.127,59.928 187.341,58.840 187.470 C 53.540 188.097,53.258 189.483,53.222 215.051 C 53.203 228.812,53.114 231.173,52.600 231.600 C 52.137 231.985,51.992 233.111,51.966 236.549 C 51.919 242.795,51.533 245.468,50.579 246.166 C 49.816 246.724,49.820 246.757,50.800 247.799 L 51.800 248.863 52.000 261.647 C 52.145 270.915,52.331 274.511,52.676 274.724 C 53.024 274.939,53.200 278.831,53.329 289.209 C 53.564 307.968,54.129 310.422,58.361 311.036 C 61.161 311.442,61.492 312.015,61.719 316.842 C 61.945 321.653,62.421 324.078,63.314 324.972 C 63.663 325.320,64.059 325.954,64.194 326.382 C 64.330 326.809,64.770 327.264,65.173 327.391 C 65.576 327.519,66.329 327.991,66.847 328.441 C 67.365 328.890,68.262 329.352,68.839 329.468 C 69.830 329.666,69.903 329.845,70.141 332.659 C 70.534 337.300,70.990 337.751,75.796 338.244 L 78.400 338.510 78.400 340.829 C 78.400 345.180,79.466 346.301,83.960 346.678 L 86.800 346.916 86.802 348.758 C 86.808 353.367,88.163 354.800,92.515 354.800 C 94.300 354.800,94.800 354.966,95.525 355.800 C 96.003 356.350,96.576 356.800,96.797 356.800 C 97.019 356.800,97.200 357.079,97.200 357.420 C 97.200 358.933,98.417 360.373,100.102 360.852 C 101.036 361.117,102.250 361.739,102.800 362.234 C 103.640 362.990,104.450 363.179,107.854 363.415 L 111.907 363.696 112.099 365.687 C 112.503 369.899,115.452 371.538,122.800 371.638 C 129.106 371.723,131.200 372.565,131.200 375.015 C 131.200 376.523,131.829 377.200,133.230 377.200 C 135.216 377.200,136.775 377.691,136.996 378.387 C 137.317 379.399,138.946 380.000,141.370 380.000 C 142.777 380.000,143.671 380.204,144.000 380.600 C 144.386 381.065,145.460 381.200,148.768 381.200 L 153.039 381.200 155.193 383.356 C 157.096 385.262,157.575 385.534,159.314 385.701 C 160.880 385.852,161.471 386.127,162.203 387.045 L 163.124 388.200 211.930 388.200 L 260.736 388.200 261.772 387.226 C 262.342 386.690,262.994 385.565,263.220 384.726 C 263.557 383.474,263.811 383.200,264.632 383.200 C 265.182 383.200,266.140 382.825,266.760 382.366 C 267.600 381.745,268.721 381.475,271.143 381.309 C 273.153 381.171,274.569 380.878,274.847 380.543 C 275.164 380.161,276.342 380.000,278.823 380.000 C 284.281 380.000,287.616 377.836,288.204 373.913 L 288.475 372.102 290.538 371.855 C 291.672 371.718,293.770 371.598,295.200 371.586 C 301.365 371.537,304.800 369.118,304.800 364.826 C 304.800 363.614,305.902 363.214,309.269 363.204 C 311.360 363.198,313.200 361.325,313.200 359.202 C 313.200 357.066,313.536 356.400,314.614 356.400 C 315.125 356.400,315.791 356.152,316.095 355.848 C 316.398 355.545,317.420 355.166,318.366 355.006 C 321.080 354.547,321.600 353.752,321.600 350.056 L 321.600 346.913 325.044 346.698 C 329.346 346.429,329.706 346.120,329.925 342.505 C 330.113 339.396,330.639 338.582,332.847 337.987 C 334.441 337.558,336.732 335.655,337.574 334.060 C 337.873 333.496,338.161 330.660,338.296 326.960 L 338.521 320.800 339.658 320.800 C 340.525 320.800,341.380 320.205,343.252 318.300 C 346.547 314.946,346.782 313.647,346.792 298.727 L 346.800 287.654 349.400 285.015 C 351.415 282.970,352.000 282.111,352.000 281.197 C 352.000 280.388,352.307 279.817,352.980 279.376 C 354.420 278.433,354.727 276.933,355.025 269.400 C 355.223 264.405,355.446 262.428,355.863 261.951 C 356.817 260.862,356.871 176.783,355.918 175.731 C 355.409 175.168,355.165 173.868,354.953 170.596 L 354.670 166.215 352.709 164.141 C 351.017 162.352,350.478 162.031,348.774 161.796 L 346.800 161.525 346.790 155.862 C 346.775 146.662,346.190 145.519,341.243 145.032 L 338.400 144.752 338.392 141.076 C 338.373 132.380,336.791 129.259,332.074 128.610 C 330.111 128.340,330.000 128.262,330.000 127.150 C 330.000 123.566,326.311 120.000,322.603 120.000 C 321.264 120.000,321.256 119.989,320.979 117.700 C 320.646 114.944,320.384 114.561,318.599 114.226 C 317.844 114.084,316.946 113.689,316.605 113.347 C 315.667 112.410,311.075 111.600,306.700 111.600 L 302.800 111.600 302.800 109.126 C 302.800 107.183,302.976 106.464,303.619 105.780 C 304.465 104.879,305.177 100.341,305.193 95.749 C 305.197 94.421,305.412 93.522,305.800 93.200 C 306.294 92.790,306.400 91.380,306.400 85.197 L 306.400 77.692 307.400 77.037 C 308.119 76.566,308.400 76.025,308.400 75.111 C 308.400 74.110,308.810 73.455,310.335 72.020 C 312.849 69.655,313.200 68.929,313.200 66.098 L 313.200 63.744 320.455 63.348 C 328.837 62.891,329.266 62.685,329.791 58.864 C 330.129 56.405,330.106 56.413,337.251 56.405 C 341.449 56.401,342.810 56.270,343.170 55.836 C 343.477 55.466,344.956 55.173,347.459 54.985 L 351.280 54.699 353.040 52.939 C 354.207 51.772,354.800 50.832,354.800 50.151 C 354.800 47.850,355.947 46.800,358.460 46.800 C 361.490 46.800,362.745 46.278,363.259 44.802 C 363.576 43.892,363.925 43.600,364.692 43.600 C 366.112 43.600,368.799 40.935,368.800 39.527 C 368.800 38.801,369.062 38.371,369.611 38.197 C 371.528 37.588,371.647 36.813,371.519 25.693 L 371.400 15.305 369.701 13.606 C 368.116 12.022,367.822 11.894,365.318 11.693 C 362.115 11.436,361.401 10.879,361.035 8.357 C 360.793 6.688,360.575 6.389,358.717 5.185 L 356.666 3.856 349.233 3.733 C 345.145 3.666,341.530 3.720,341.200 3.854 M349.088 24.219 C 355.393 27.361,354.112 33.241,346.669 35.329 C 342.922 36.380,341.890 37.080,339.943 39.893 C 338.276 42.301,336.169 42.856,325.841 43.612 C 319.648 44.065,318.042 44.591,316.824 46.561 C 314.841 49.770,313.310 50.656,308.687 51.272 C 302.408 52.108,301.296 52.687,299.601 56.002 C 299.206 56.773,298.035 58.014,296.998 58.759 C 294.029 60.891,293.818 61.823,293.375 74.800 C 293.028 84.966,292.226 88.550,289.796 90.800 C 286.359 93.980,285.782 96.088,285.190 107.600 C 284.981 111.670,284.635 116.049,284.421 117.330 C 283.543 122.590,284.024 122.913,293.200 123.218 C 301.272 123.487,303.486 124.123,305.479 126.743 C 307.181 128.981,308.566 130.044,312.334 132.000 L 315.800 133.800 317.670 137.600 C 318.812 139.922,320.389 142.338,321.724 143.813 C 324.988 147.416,325.323 148.680,325.513 158.070 C 325.690 166.850,325.631 166.672,328.624 167.524 C 330.814 168.148,331.592 169.081,334.018 174.000 C 335.157 176.310,337.076 179.856,338.283 181.881 C 341.478 187.244,341.800 189.506,341.800 206.600 C 341.800 228.754,341.131 237.760,339.007 244.200 C 335.719 254.168,334.704 261.027,333.596 280.750 C 332.992 291.494,332.421 294.029,329.800 297.600 C 327.572 300.635,326.956 302.579,324.995 312.771 C 324.221 316.797,323.752 317.771,321.053 320.962 C 319.919 322.303,318.517 324.480,317.938 325.800 C 317.359 327.120,316.532 329.021,316.099 330.024 C 315.505 331.401,314.761 332.214,313.061 333.342 C 310.639 334.950,310.146 335.509,308.402 338.626 C 307.505 340.229,306.781 340.913,304.934 341.899 C 302.572 343.161,301.076 344.539,299.024 347.342 C 298.403 348.191,297.243 349.154,296.447 349.484 C 292.357 351.177,290.433 352.340,287.944 354.624 C 285.225 357.119,283.017 358.181,278.800 359.024 C 276.258 359.531,273.027 361.212,271.200 362.976 C 268.406 365.674,265.350 366.695,258.000 367.387 C 253.605 367.800,248.779 369.200,244.800 371.217 C 237.739 374.795,235.799 375.007,210.400 374.982 C 186.988 374.960,181.296 374.155,176.817 370.234 C 175.597 369.165,169.349 367.790,160.400 366.621 C 154.198 365.811,153.352 365.510,150.800 363.205 C 148.306 360.953,146.457 360.229,139.017 358.592 C 133.493 357.376,133.267 357.277,130.600 354.878 C 128.337 352.843,125.876 351.640,121.333 350.348 C 117.796 349.343,116.387 348.516,114.467 346.320 C 113.556 345.278,111.504 343.967,107.987 342.178 C 103.572 339.933,102.638 339.286,101.421 337.629 C 99.934 335.603,98.264 334.164,96.119 333.059 C 94.618 332.286,92.000 329.696,92.000 328.984 C 92.000 328.400,88.842 325.123,86.563 323.341 C 85.359 322.400,84.406 320.987,82.788 317.741 C 81.308 314.773,79.910 312.638,78.367 310.992 C 76.009 308.476,75.427 307.123,74.409 301.800 C 73.407 296.561,71.963 292.361,70.156 289.433 C 67.047 284.396,66.753 281.847,66.516 257.898 C 66.220 227.910,66.778 221.508,70.342 214.000 C 72.682 209.070,73.882 203.014,74.788 191.557 C 75.415 183.627,77.051 179.600,79.646 179.600 C 80.255 179.600,80.861 179.775,80.993 179.989 C 81.893 181.444,88.932 182.392,92.754 181.572 C 96.448 180.780,95.993 179.738,90.817 177.140 C 86.126 174.786,84.928 173.193,83.792 167.800 C 82.560 161.948,82.955 159.338,85.382 157.297 C 86.977 155.956,88.547 153.541,89.216 151.400 C 89.864 149.326,90.714 148.266,93.172 146.468 C 94.275 145.661,95.719 144.241,96.381 143.314 C 97.816 141.304,98.965 140.657,102.603 139.814 C 105.999 139.026,107.379 138.187,109.586 135.570 C 115.047 129.095,120.722 141.542,117.108 152.067 C 115.074 157.992,118.256 167.200,122.339 167.200 C 123.196 167.200,124.800 168.144,124.800 168.649 C 124.800 169.195,126.027 170.498,127.430 171.442 C 129.687 172.960,144.127 173.783,147.169 172.566 C 149.483 171.640,148.986 168.031,146.016 164.200 C 145.414 163.423,144.101 159.375,143.815 157.415 C 143.656 156.323,143.024 154.433,142.411 153.215 C 137.773 143.995,139.404 141.178,150.292 139.596 C 155.708 138.809,157.200 138.199,157.200 136.771 C 157.200 136.139,154.229 135.671,148.484 135.397 C 145.120 135.236,141.498 134.810,139.684 134.361 L 136.600 133.597 135.500 134.805 C 134.870 135.497,134.397 136.479,134.394 137.106 C 134.338 146.658,133.903 159.446,133.579 161.000 C 132.960 163.979,130.546 166.400,128.195 166.400 C 126.091 166.400,126.033 166.265,124.588 158.041 C 123.439 151.502,124.821 132.239,126.715 128.400 L 127.800 126.200 132.200 126.159 C 136.178 126.123,136.869 126.001,139.400 124.898 C 141.380 124.036,143.824 123.434,147.746 122.843 C 153.596 121.962,154.786 121.489,157.646 118.909 C 162.149 114.847,168.490 114.383,217.800 114.506 L 255.000 114.600 256.785 115.600 C 260.891 117.901,261.389 120.842,258.641 126.548 C 256.156 131.707,256.535 135.152,259.760 136.733 C 262.651 138.150,264.122 134.511,264.424 125.200 C 264.715 116.221,266.299 109.822,268.918 107.042 C 272.069 103.697,272.713 101.280,273.195 91.000 C 273.669 80.880,274.291 78.392,277.009 75.749 C 280.698 72.160,281.029 71.003,281.571 59.786 C 281.969 51.536,282.217 50.955,286.176 48.999 C 288.952 47.627,290.800 45.511,290.800 43.704 C 290.800 41.633,294.475 40.252,301.158 39.811 C 306.212 39.477,307.264 38.983,308.828 36.213 C 310.533 33.192,311.996 32.485,318.006 31.783 C 326.039 30.845,327.930 30.103,330.003 27.078 C 332.528 23.393,343.987 21.677,349.088 24.219 M153.536 32.419 C 169.836 33.588,172.534 34.846,173.724 41.835 C 174.778 48.029,173.370 49.699,165.447 51.655 C 161.479 52.635,160.850 53.025,158.825 55.766 C 156.076 59.487,154.789 59.538,146.600 56.253 C 143.048 54.828,141.813 54.108,140.196 52.516 C 135.776 48.167,134.263 51.867,138.059 57.740 C 141.719 63.403,139.535 66.602,131.329 67.599 C 129.388 67.835,126.423 68.284,124.741 68.598 C 118.461 69.768,115.985 67.612,114.378 59.576 C 113.608 55.721,112.611 53.600,111.570 53.600 C 111.137 53.600,110.519 56.697,109.606 63.459 C 107.965 75.602,105.408 77.525,92.928 76.008 C 86.312 75.204,84.561 74.318,82.153 70.553 C 81.395 69.369,80.609 68.400,80.407 68.400 C 79.302 68.400,77.993 69.487,77.340 70.946 C 75.194 75.746,72.127 77.052,64.379 76.464 C 52.065 75.530,49.289 72.128,55.706 65.835 C 57.744 63.836,59.929 61.605,60.561 60.877 C 61.821 59.428,65.214 57.014,67.943 55.626 C 69.664 54.751,70.869 53.637,72.777 51.157 C 73.923 49.668,76.198 48.580,79.000 48.181 C 81.614 47.809,82.936 47.106,84.030 45.506 C 86.544 41.832,88.248 42.164,92.454 47.151 C 94.395 49.452,96.433 48.959,100.758 45.143 C 101.966 44.077,103.815 42.925,104.958 42.526 C 106.441 42.008,107.667 41.127,109.436 39.307 C 112.219 36.444,112.670 36.336,114.774 38.027 C 118.139 40.731,123.744 40.560,125.889 37.687 C 129.689 32.600,136.896 31.226,153.536 32.419 M129.141 43.120 C 127.405 43.325,127.549 45.624,129.377 46.894 C 129.894 47.253,132.970 47.297,133.317 46.949 C 134.242 46.024,130.853 42.917,129.141 43.120 M87.505 51.426 C 86.294 52.083,86.213 52.323,85.561 57.200 C 84.734 63.379,85.200 64.994,87.530 64.029 C 88.863 63.477,88.914 63.313,89.604 57.350 C 90.030 53.669,89.608 50.652,88.690 50.816 C 88.640 50.825,88.107 51.099,87.505 51.426 M124.483 84.385 C 126.175 88.094,124.518 117.244,122.464 119.890 C 119.492 123.720,116.275 115.365,116.353 104.015 C 116.485 84.742,120.368 75.366,124.483 84.385 M191.400 127.654 C 184.074 127.995,182.800 128.341,182.800 129.991 C 182.800 130.987,211.181 131.854,223.516 131.235 C 232.369 130.791,238.900 130.232,237.331 130.053 C 237.073 130.024,236.345 129.566,235.714 129.035 C 233.676 127.320,212.678 126.665,191.400 127.654 M278.900 131.911 C 277.077 133.314,276.490 140.930,277.807 146.100 C 278.384 148.366,279.969 147.621,282.500 143.896 C 283.735 142.078,285.207 140.157,285.772 139.626 C 287.398 138.099,287.116 137.091,284.500 135.068 C 283.235 134.089,281.764 132.819,281.230 132.244 C 280.090 131.016,280.066 131.013,278.900 131.911 M293.764 145.403 C 293.479 146.537,294.482 148.400,295.377 148.400 C 295.683 148.400,296.186 148.496,296.492 148.614 C 297.477 148.992,298.201 147.051,297.608 145.620 C 296.912 143.939,294.170 143.784,293.764 145.403 M252.413 151.387 C 252.004 152.054,251.007 153.922,250.199 155.538 C 249.391 157.154,248.115 159.156,247.365 159.986 C 244.848 162.772,246.233 165.009,252.104 167.638 C 254.870 168.876,256.137 165.397,255.939 157.109 C 255.768 149.995,254.516 147.962,252.413 151.387 M161.000 151.803 C 160.780 151.879,158.995 152.158,157.034 152.422 C 153.612 152.882,151.600 153.920,151.600 155.225 C 151.600 155.706,155.439 156.412,159.400 156.659 C 166.910 157.127,182.307 154.498,179.909 153.157 C 179.034 152.668,162.015 151.449,161.000 151.803 M216.600 151.803 C 216.160 151.886,212.875 152.168,209.300 152.430 C 205.725 152.692,202.800 153.054,202.800 153.234 C 202.800 155.668,225.900 157.784,232.900 155.992 C 235.090 155.431,235.159 155.268,233.793 153.902 C 232.406 152.515,220.528 151.065,216.600 151.803 M295.800 159.502 C 292.885 160.159,292.342 164.400,295.173 164.400 C 296.609 164.400,297.471 163.661,297.780 162.166 C 298.091 160.658,297.027 159.226,295.800 159.502 M270.798 160.261 C 270.249 160.632,269.760 160.960,269.711 160.990 C 269.661 161.021,269.151 163.732,268.577 167.016 C 266.703 177.732,264.072 179.323,256.384 174.390 C 253.813 172.740,251.114 172.914,242.800 175.269 C 239.899 176.091,238.915 176.123,213.000 176.243 C 186.834 176.364,176.040 176.721,170.040 177.664 L 167.079 178.129 170.840 179.256 C 179.424 181.827,255.848 182.396,266.400 179.967 C 270.614 178.997,271.383 178.661,273.150 177.020 C 275.837 174.525,277.778 173.689,282.059 173.185 C 287.598 172.532,288.541 172.221,289.049 170.875 C 289.906 168.606,289.070 168.202,283.482 168.186 C 276.853 168.166,275.527 167.407,273.051 162.218 L 271.796 159.588 270.798 160.261 M320.868 168.700 C 319.689 169.697,319.520 170.128,319.062 173.301 C 318.471 177.403,318.427 177.464,315.607 177.999 C 312.123 178.659,310.131 181.622,312.469 182.665 C 313.337 183.053,313.393 183.025,318.000 179.978 C 318.330 179.759,319.179 179.232,319.886 178.805 C 323.229 176.788,325.945 169.647,323.911 168.223 C 322.702 167.376,322.374 167.427,320.868 168.700 M303.000 185.390 C 302.780 185.482,301.843 185.751,300.918 185.989 C 295.273 187.439,296.590 190.824,302.811 190.853 C 306.757 190.872,311.643 187.483,310.016 185.856 C 309.584 185.424,303.834 185.042,303.000 185.390 M106.200 185.870 C 103.425 186.216,103.168 186.362,103.320 187.504 C 103.769 190.857,121.411 192.019,123.384 188.825 C 124.599 186.860,113.526 184.955,106.200 185.870 M266.018 194.227 C 262.325 194.701,257.597 196.006,256.678 196.804 C 256.250 197.176,258.008 197.858,261.200 198.559 C 270.525 200.606,287.707 198.624,286.914 195.593 C 286.489 193.968,274.263 193.168,266.018 194.227 M139.027 194.444 C 135.342 194.981,134.895 196.613,138.200 197.462 C 147.959 199.968,160.825 199.980,166.731 197.488 L 168.063 196.926 165.131 195.892 C 160.060 194.103,146.516 193.352,139.027 194.444 " stroke="none" fill="#281e1a" fill-rule="evenodd"></path><path id="path2" d="M278.957 95.263 C 278.237 95.612,278.076 96.151,277.859 98.936 C 277.318 105.889,277.682 107.428,279.407 105.478 C 280.395 104.361,281.021 94.744,280.100 94.827 C 279.935 94.842,279.420 95.038,278.957 95.263 M196.351 119.223 C 186.030 119.482,184.531 119.641,185.017 120.428 C 185.144 120.632,185.062 120.800,184.836 120.800 C 184.610 120.800,184.521 121.050,184.638 121.355 C 184.985 122.258,189.126 122.438,213.000 122.587 C 225.320 122.664,239.450 122.844,244.400 122.986 C 252.034 123.205,253.512 123.154,254.138 122.650 C 255.151 121.835,254.702 119.673,253.468 119.424 C 251.898 119.108,207.231 118.951,196.351 119.223 M270.709 126.694 C 269.562 127.899,268.661 137.001,269.479 139.123 L 269.834 140.045 270.864 139.235 C 272.008 138.335,272.474 135.534,272.444 129.735 C 272.423 125.823,272.092 125.241,270.709 126.694 M144.500 127.372 C 141.536 128.716,143.195 131.358,147.000 131.353 C 153.197 131.345,157.766 128.736,153.466 127.662 C 150.315 126.874,145.910 126.732,144.500 127.372 M292.000 127.654 C 291.230 127.864,290.190 128.494,289.689 129.054 L 288.778 130.071 290.325 131.192 C 291.176 131.808,292.785 133.568,293.901 135.102 C 295.323 137.057,296.753 138.439,298.678 139.719 C 304.525 143.606,306.152 145.583,307.369 150.282 C 308.447 154.439,307.901 156.447,304.761 159.877 C 303.916 160.800,302.820 162.420,302.325 163.477 C 301.830 164.535,300.609 166.156,299.612 167.081 C 298.615 168.005,296.720 169.801,295.400 171.072 C 291.646 174.686,290.926 175.116,286.140 176.610 C 281.829 177.956,280.934 178.459,278.039 181.163 C 274.602 184.374,270.488 184.616,220.600 184.536 C 162.279 184.442,149.944 183.690,142.600 179.781 C 139.322 178.036,135.839 177.085,128.000 175.794 C 120.370 174.538,119.734 174.173,115.605 168.670 C 114.643 167.388,113.277 165.858,112.568 165.270 C 108.330 161.750,107.934 154.086,111.800 150.400 C 117.088 145.357,114.839 140.824,107.920 142.580 C 102.902 143.854,102.246 144.204,100.452 146.564 C 99.602 147.684,98.126 149.050,97.174 149.600 C 94.452 151.173,93.013 152.869,92.208 155.456 C 91.806 156.745,91.074 158.700,90.581 159.800 C 89.180 162.924,89.176 162.989,90.079 166.863 C 91.188 171.617,92.764 173.425,97.000 174.801 C 100.272 175.863,102.322 176.845,104.762 178.517 C 107.606 180.465,110.038 181.162,117.533 182.180 C 128.818 183.712,133.814 184.749,135.516 185.911 C 140.352 189.214,142.445 189.631,160.074 190.803 C 171.349 191.553,176.849 192.032,187.200 193.168 C 194.377 193.956,203.800 194.400,213.193 194.394 C 222.055 194.388,226.273 194.167,235.800 193.210 C 246.854 192.099,257.938 191.156,266.521 190.596 C 279.561 189.745,281.179 189.418,286.800 186.493 C 290.579 184.526,292.462 183.838,297.347 182.635 C 304.396 180.901,305.139 180.556,306.954 178.179 C 308.520 176.128,309.573 175.228,311.600 174.210 C 313.964 173.022,314.738 172.005,315.818 168.671 C 316.389 166.906,317.273 164.638,317.782 163.631 C 319.934 159.372,320.514 154.575,319.190 151.981 C 318.745 151.108,317.911 149.090,317.337 147.497 C 314.825 140.525,309.409 134.937,303.033 132.740 C 301.984 132.379,300.944 131.539,299.889 130.200 C 297.513 127.187,295.771 126.625,292.000 127.654 M206.600 137.231 C 199.354 137.538,189.697 138.636,193.200 138.755 C 197.194 138.890,207.266 142.272,209.640 144.275 C 211.026 145.445,218.925 146.799,229.121 147.615 C 234.687 148.061,240.537 148.673,242.121 148.975 C 244.960 149.518,245.018 149.512,246.297 148.545 C 250.053 145.704,247.801 141.813,241.721 140.637 C 239.784 140.262,236.893 139.606,235.295 139.178 C 227.965 137.214,219.902 136.667,206.600 137.231 M160.400 143.434 C 159.850 143.496,156.633 143.774,153.251 144.052 C 146.957 144.568,146.000 144.875,146.000 146.380 C 146.000 147.963,146.871 148.126,153.708 147.820 C 169.089 147.132,175.265 145.067,166.295 143.611 C 163.907 143.223,162.593 143.184,160.400 143.434 M285.528 152.100 C 284.214 153.943,284.193 157.971,285.490 159.268 L 286.380 160.158 287.438 159.179 C 290.330 156.502,291.065 153.784,289.407 151.900 C 288.075 150.387,286.698 150.458,285.528 152.100 M262.281 159.030 C 260.678 160.517,260.769 164.688,262.400 164.461 C 263.866 164.257,264.447 162.016,263.739 159.297 L 263.399 157.993 262.281 159.030 " stroke="none" fill="#b4bfbf" fill-rule="evenodd"></path><path id="path3" d="M335.800 23.755 C 332.844 24.342,331.253 25.254,330.003 27.078 C 327.930 30.103,326.039 30.845,318.006 31.783 C 311.996 32.485,310.533 33.192,308.828 36.213 C 307.264 38.983,306.212 39.477,301.158 39.811 C 294.475 40.252,290.800 41.633,290.800 43.704 C 290.800 45.511,288.952 47.627,286.176 48.999 C 282.217 50.955,281.969 51.536,281.571 59.786 C 281.029 71.003,280.698 72.160,277.009 75.749 C 274.291 78.392,273.669 80.880,273.195 91.000 C 272.713 101.280,272.069 103.697,268.918 107.042 C 266.299 109.822,264.715 116.221,264.424 125.200 C 264.122 134.511,262.651 138.150,259.760 136.733 C 256.535 135.152,256.156 131.707,258.641 126.548 C 261.389 120.842,260.891 117.901,256.785 115.600 L 255.000 114.600 217.800 114.506 C 168.490 114.383,162.149 114.847,157.646 118.909 C 154.786 121.489,153.596 121.962,147.746 122.843 C 143.787 123.439,141.399 124.030,139.400 124.908 C 136.868 126.020,136.255 126.128,133.000 126.045 C 130.108 125.971,129.498 126.052,129.900 126.456 C 130.175 126.733,130.400 127.625,130.400 128.438 C 130.400 130.233,131.810 134.953,132.574 135.717 C 132.878 136.021,133.189 136.690,133.264 137.204 C 133.476 138.657,134.400 138.687,134.400 137.240 C 134.400 136.460,134.802 135.572,135.500 134.805 L 136.600 133.597 139.684 134.361 C 141.498 134.810,145.120 135.236,148.484 135.397 C 154.229 135.671,157.200 136.139,157.200 136.771 C 157.200 138.199,155.708 138.809,150.292 139.596 C 139.404 141.178,137.773 143.995,142.411 153.215 C 143.024 154.433,143.656 156.323,143.815 157.415 C 144.101 159.375,145.414 163.423,146.016 164.200 C 148.986 168.031,149.483 171.640,147.169 172.566 C 144.127 173.783,129.687 172.960,127.430 171.442 C 126.027 170.498,124.800 169.195,124.800 168.649 C 124.800 168.144,123.196 167.200,122.339 167.200 C 118.256 167.200,115.074 157.992,117.108 152.067 C 120.722 141.542,115.047 129.095,109.586 135.570 C 107.379 138.187,105.999 139.026,102.603 139.814 C 98.965 140.657,97.816 141.304,96.381 143.314 C 95.719 144.241,94.275 145.661,93.172 146.468 C 90.714 148.266,89.864 149.326,89.216 151.400 C 88.547 153.541,86.977 155.956,85.382 157.297 C 82.955 159.338,82.560 161.948,83.792 167.800 C 84.928 173.193,86.126 174.786,90.817 177.140 C 95.993 179.738,96.448 180.780,92.754 181.572 C 88.932 182.392,81.893 181.444,80.993 179.989 C 80.861 179.775,80.255 179.600,79.646 179.600 C 77.051 179.600,75.415 183.627,74.788 191.557 C 73.882 203.014,72.682 209.070,70.342 214.000 C 66.778 221.508,66.220 227.910,66.516 257.898 C 66.753 281.847,67.047 284.396,70.156 289.433 C 71.963 292.361,73.407 296.561,74.409 301.800 C 75.427 307.123,76.009 308.476,78.367 310.992 C 79.910 312.638,81.308 314.773,82.788 317.741 C 84.406 320.987,85.359 322.400,86.563 323.341 C 88.842 325.123,92.000 328.400,92.000 328.984 C 92.000 329.696,94.618 332.286,96.119 333.059 C 98.264 334.164,99.934 335.603,101.421 337.629 C 102.638 339.286,103.572 339.933,107.987 342.178 C 111.504 343.967,113.556 345.278,114.467 346.320 C 116.387 348.516,117.796 349.343,121.333 350.348 C 125.876 351.640,128.337 352.843,130.600 354.878 C 133.267 357.277,133.493 357.376,139.017 358.592 C 146.457 360.229,148.306 360.953,150.800 363.205 C 153.352 365.510,154.198 365.811,160.400 366.621 C 169.349 367.790,175.597 369.165,176.817 370.234 C 181.296 374.155,186.988 374.960,210.400 374.982 C 235.799 375.007,237.739 374.795,244.800 371.217 C 248.779 369.200,253.605 367.800,258.000 367.387 C 265.350 366.695,268.406 365.674,271.200 362.976 C 273.027 361.212,276.258 359.531,278.800 359.024 C 283.017 358.181,285.225 357.119,287.944 354.624 C 290.433 352.340,292.357 351.177,296.447 349.484 C 297.243 349.154,298.403 348.191,299.024 347.342 C 301.076 344.539,302.572 343.161,304.934 341.899 C 306.781 340.913,307.505 340.229,308.402 338.626 C 310.146 335.509,310.639 334.950,313.061 333.342 C 314.761 332.214,315.505 331.401,316.099 330.024 C 316.532 329.021,317.359 327.120,317.938 325.800 C 318.517 324.480,319.919 322.303,321.053 320.962 C 323.752 317.771,324.221 316.797,324.995 312.771 C 326.956 302.579,327.572 300.635,329.800 297.600 C 332.421 294.029,332.992 291.494,333.596 280.750 C 334.704 261.027,335.719 254.168,339.007 244.200 C 341.131 237.760,341.800 228.754,341.800 206.600 C 341.800 189.506,341.478 187.244,338.283 181.881 C 337.076 179.856,335.157 176.310,334.018 174.000 C 331.592 169.081,330.814 168.148,328.624 167.524 C 325.631 166.672,325.690 166.850,325.513 158.070 C 325.323 148.680,324.988 147.416,321.724 143.813 C 320.389 142.338,318.812 139.922,317.670 137.600 L 315.800 133.800 312.334 132.000 C 308.566 130.044,307.181 128.981,305.479 126.743 C 303.486 124.123,301.272 123.487,293.200 123.218 C 284.024 122.913,283.543 122.590,284.421 117.330 C 284.635 116.049,284.981 111.670,285.190 107.600 C 285.782 96.088,286.359 93.980,289.796 90.800 C 292.226 88.550,293.028 84.966,293.375 74.800 C 293.818 61.823,294.029 60.891,296.998 58.759 C 298.035 58.014,299.206 56.773,299.601 56.002 C 301.296 52.687,302.408 52.108,308.687 51.272 C 313.310 50.656,314.841 49.770,316.824 46.561 C 318.042 44.591,319.648 44.065,325.841 43.612 C 336.169 42.856,338.276 42.301,339.943 39.893 C 341.890 37.080,342.922 36.380,346.669 35.329 C 352.680 33.642,354.524 30.413,351.826 26.296 C 349.961 23.450,342.942 22.337,335.800 23.755 M346.373 25.592 C 352.553 27.365,350.729 32.589,343.575 33.604 C 339.685 34.155,337.631 35.140,335.859 37.302 C 332.172 41.801,315.119 43.396,313.594 39.385 C 312.381 36.194,315.373 34.565,324.600 33.390 C 331.304 32.536,331.798 32.332,333.469 29.720 C 335.097 27.174,336.784 26.244,340.816 25.668 C 344.414 25.154,344.825 25.148,346.373 25.592 M308.958 42.347 C 313.689 43.380,311.399 48.064,305.600 49.214 C 299.914 50.342,299.312 50.646,295.959 54.091 C 292.203 57.949,292.106 58.220,291.586 66.200 C 290.874 77.132,289.778 82.954,288.252 83.895 C 285.317 85.707,284.640 88.164,283.424 101.421 C 282.380 112.799,281.692 116.143,279.685 119.600 C 279.110 120.590,278.335 122.030,277.963 122.800 C 277.069 124.649,274.987 136.155,274.453 142.200 C 273.893 148.538,273.505 149.726,271.196 152.167 C 269.167 154.312,267.882 156.982,267.426 160.000 C 265.592 172.127,263.807 175.045,259.827 172.421 C 257.910 171.158,257.762 170.522,258.073 164.916 C 258.889 150.243,259.480 147.267,262.138 144.425 C 264.682 141.705,265.852 137.244,266.814 126.600 C 267.495 119.057,267.983 117.548,271.702 111.489 C 273.367 108.777,273.994 105.831,275.207 95.000 C 276.279 85.433,276.672 84.158,279.379 81.473 C 282.187 78.687,282.581 77.250,283.386 66.854 C 284.372 54.124,284.637 53.391,288.826 51.790 C 291.758 50.670,293.193 49.229,293.200 47.400 C 293.204 46.293,294.575 44.148,295.644 43.576 C 297.811 42.417,305.868 41.673,308.958 42.347 M253.459 117.830 C 256.525 118.294,257.655 120.793,256.016 123.481 C 254.417 126.103,254.171 126.121,238.000 124.807 C 235.030 124.565,221.800 124.293,208.600 124.201 C 183.054 124.024,178.444 123.856,174.525 122.960 C 170.702 122.086,170.763 122.129,171.514 120.821 C 172.176 119.668,173.114 119.329,178.400 118.331 C 182.697 117.521,248.510 117.081,253.459 117.830 M156.598 125.997 C 160.730 126.674,162.640 129.403,159.901 130.716 C 155.650 132.754,145.097 133.225,142.475 131.494 C 139.737 129.687,140.368 127.506,144.058 126.028 C 145.314 125.525,153.589 125.505,156.598 125.997 M298.716 126.769 C 299.532 127.192,300.934 128.317,301.832 129.269 C 302.729 130.221,304.169 131.351,305.032 131.780 C 312.292 135.393,314.468 137.789,319.395 147.600 C 323.030 154.839,323.005 159.797,319.309 164.675 C 318.778 165.376,317.726 167.522,316.972 169.443 C 315.376 173.508,315.005 173.982,312.170 175.582 C 311.005 176.240,309.545 177.447,308.926 178.266 C 306.679 181.236,305.744 181.874,302.306 182.787 C 294.469 184.867,292.447 185.639,289.242 187.772 C 285.440 190.302,284.096 190.612,274.335 191.214 C 266.377 191.704,257.110 192.578,248.704 193.631 C 243.045 194.339,240.776 194.699,237.600 195.393 C 225.812 197.965,199.108 198.087,187.070 195.623 C 176.492 193.458,168.594 192.531,151.013 191.394 C 140.715 190.729,136.652 190.091,134.659 188.828 C 129.736 185.707,125.639 184.515,115.400 183.224 C 106.860 182.148,105.003 181.620,102.335 179.511 C 101.161 178.583,98.601 177.134,96.647 176.292 C 90.775 173.760,89.310 172.123,87.771 166.371 C 86.936 163.251,86.973 162.113,87.954 160.780 C 88.938 159.445,90.570 156.172,91.155 154.365 C 91.805 152.354,93.294 150.462,95.236 149.176 C 96.147 148.573,97.997 146.925,99.346 145.515 C 101.778 142.973,106.301 140.858,111.704 139.737 C 115.956 138.855,116.918 147.211,113.056 151.486 C 110.982 153.781,110.803 154.527,111.414 158.344 C 111.998 161.989,112.211 162.402,115.156 165.600 C 116.270 166.810,117.771 168.661,118.491 169.713 C 120.617 172.820,123.279 173.786,134.800 175.628 C 140.669 176.566,145.747 177.901,149.200 179.413 C 156.464 182.595,179.129 183.759,228.600 183.493 C 270.623 183.267,272.628 183.083,277.094 179.048 C 278.988 177.337,280.302 176.748,284.786 175.603 C 289.285 174.455,290.156 173.965,293.231 170.859 C 294.678 169.396,296.871 167.340,298.103 166.288 C 299.844 164.803,300.550 163.845,301.269 161.990 C 301.811 160.592,302.965 158.766,304.055 157.580 C 308.431 152.820,304.590 144.723,295.600 139.759 C 294.610 139.212,293.260 138.031,292.600 137.135 C 291.940 136.238,290.095 134.297,288.500 132.821 C 284.236 128.876,284.460 127.746,289.733 126.600 C 293.458 125.790,296.954 125.856,298.716 126.769 M228.709 127.635 C 233.973 128.026,234.684 128.168,235.714 129.035 C 236.345 129.566,237.073 130.024,237.331 130.053 C 243.836 130.794,213.920 131.779,200.916 131.252 C 181.860 130.480,182.119 130.516,183.500 128.839 C 184.661 127.429,215.042 126.620,228.709 127.635 M281.230 132.244 C 281.764 132.819,283.235 134.089,284.500 135.068 C 287.116 137.091,287.398 138.099,285.772 139.626 C 285.207 140.157,283.735 142.078,282.500 143.896 C 279.969 147.621,278.384 148.366,277.807 146.100 C 276.490 140.930,277.077 133.314,278.900 131.911 C 280.066 131.013,280.090 131.016,281.230 132.244 M239.200 135.784 C 246.188 136.746,247.738 137.768,250.000 142.900 C 251.040 145.259,250.763 146.520,248.462 149.909 C 246.413 152.926,245.657 153.146,241.942 151.806 C 237.371 150.157,230.596 149.318,214.369 148.391 C 210.502 148.170,204.742 147.726,201.569 147.404 C 195.639 146.803,185.724 147.038,176.400 147.999 C 174.310 148.215,169.450 148.579,165.600 148.808 C 158.890 149.207,147.564 150.329,147.249 150.626 C 146.860 150.993,144.790 149.478,144.053 148.286 C 141.991 144.949,143.984 143.372,151.530 142.368 C 164.461 140.648,168.123 139.848,174.001 137.456 C 177.112 136.191,180.603 135.465,185.600 135.046 C 191.602 134.542,234.472 135.132,239.200 135.784 M297.608 145.620 C 298.201 147.051,297.477 148.992,296.492 148.614 C 296.186 148.496,295.683 148.400,295.377 148.400 C 294.482 148.400,293.479 146.537,293.764 145.403 C 294.170 143.784,296.912 143.939,297.608 145.620 M291.100 150.005 C 294.012 153.687,294.105 154.298,292.166 157.001 C 291.378 158.101,290.297 159.852,289.763 160.893 C 287.525 165.263,278.138 166.272,277.378 162.224 C 277.058 160.518,277.658 158.858,279.071 157.540 C 279.625 157.023,280.442 155.880,280.886 155.000 C 281.331 154.120,282.416 152.320,283.298 151.000 C 286.895 145.616,287.562 145.531,291.100 150.005 M255.273 150.688 C 256.005 151.568,256.252 162.272,255.594 164.620 C 254.505 168.511,253.341 168.659,248.500 165.525 C 245.431 163.537,245.195 162.388,247.365 159.986 C 248.115 159.156,249.391 157.154,250.199 155.538 C 252.946 150.046,253.946 149.090,255.273 150.688 M171.163 152.236 C 180.572 152.963,181.045 153.090,178.881 154.306 C 174.669 156.674,151.600 157.451,151.600 155.225 C 151.600 153.920,153.612 152.882,157.034 152.422 C 158.995 152.158,160.780 151.879,161.000 151.803 C 161.733 151.547,162.871 151.596,171.163 152.236 M229.732 152.441 C 232.605 152.868,234.800 154.066,234.800 155.207 C 234.800 157.478,210.135 156.807,204.665 154.388 C 201.829 153.133,202.275 152.944,209.300 152.430 C 212.875 152.168,216.160 151.886,216.600 151.803 C 217.962 151.547,226.516 151.963,229.732 152.441 M205.801 158.200 C 235.995 160.013,235.812 159.979,240.114 164.511 C 245.703 170.400,245.761 171.348,240.640 173.156 L 237.951 174.105 205.676 173.860 C 158.336 173.500,158.196 173.480,153.195 166.497 C 149.302 161.061,150.863 160.118,165.600 159.007 C 185.225 157.526,192.230 157.386,205.801 158.200 M297.780 162.166 C 297.471 163.661,296.609 164.400,295.173 164.400 C 292.342 164.400,292.885 160.159,295.800 159.502 C 297.027 159.226,298.091 160.658,297.780 162.166 M275.253 165.862 C 277.113 167.854,278.234 168.170,283.482 168.186 C 289.070 168.202,289.906 168.606,289.049 170.875 C 288.541 172.221,287.598 172.532,282.059 173.185 C 277.778 173.689,275.837 174.525,273.150 177.020 C 271.383 178.661,270.614 178.997,266.400 179.967 C 255.848 182.396,179.424 181.827,170.840 179.256 L 167.079 178.129 170.040 177.664 C 176.040 176.721,186.834 176.364,213.000 176.243 C 238.915 176.123,239.899 176.091,242.800 175.269 C 251.114 172.914,253.813 172.740,256.384 174.390 C 264.072 179.323,266.703 177.732,268.577 167.016 C 269.151 163.732,269.661 161.021,269.711 160.990 C 269.760 160.960,270.249 160.632,270.798 160.261 L 271.796 159.588 273.051 162.218 C 273.741 163.665,274.732 165.305,275.253 165.862 M125.473 163.100 C 125.815 165.398,126.608 166.400,128.084 166.400 C 129.282 166.400,131.991 164.946,131.997 164.300 C 132.001 163.900,131.693 163.922,130.829 164.385 C 130.325 164.654,129.885 164.598,129.355 164.197 C 128.940 163.883,128.367 163.620,128.082 163.613 C 127.797 163.606,127.114 163.150,126.564 162.600 C 125.264 161.300,125.209 161.325,125.473 163.100 M323.911 168.223 C 325.945 169.647,323.229 176.788,319.886 178.805 C 319.179 179.232,318.330 179.759,318.000 179.978 C 313.393 183.025,313.337 183.053,312.469 182.665 C 310.131 181.622,312.123 178.659,315.607 177.999 C 318.427 177.464,318.471 177.403,319.062 173.301 C 319.730 168.668,321.660 166.646,323.911 168.223 M329.844 175.906 C 330.657 176.444,331.598 178.736,332.215 181.684 C 332.957 185.228,334.048 188.423,335.875 192.400 C 338.052 197.141,339.069 207.972,337.979 214.800 C 337.750 216.230,337.496 217.850,337.414 218.400 C 336.858 222.116,336.614 223.265,335.932 225.400 C 333.278 233.699,332.048 243.911,331.212 264.600 C 330.556 280.804,329.986 284.175,327.150 288.600 C 325.349 291.412,324.201 295.310,323.200 302.016 C 321.676 312.226,321.484 312.803,318.878 314.995 C 317.435 316.210,315.710 319.361,314.604 322.800 C 313.186 327.214,312.050 329.137,310.230 330.204 C 307.961 331.534,307.230 332.378,305.800 335.326 C 304.657 337.683,304.459 337.868,301.600 339.243 C 299.195 340.400,298.243 341.142,296.800 342.980 C 294.931 345.361,293.727 346.149,288.200 348.609 C 285.714 349.716,284.446 350.603,282.519 352.584 C 280.306 354.858,279.786 355.186,277.719 355.612 C 269.965 357.211,267.428 358.251,265.012 360.823 C 262.806 363.173,261.890 363.458,253.550 364.393 C 242.978 365.578,237.157 366.647,232.600 368.240 C 222.411 371.803,203.426 372.174,193.600 369.002 C 186.168 366.603,181.007 365.619,168.400 364.199 C 162.115 363.490,160.348 362.896,157.530 360.542 C 154.895 358.340,152.975 357.612,146.529 356.368 C 140.005 355.109,137.415 354.185,136.121 352.655 C 133.913 350.043,130.754 348.644,123.820 347.204 C 121.691 346.762,121.229 346.460,118.641 343.816 C 116.717 341.851,115.284 340.749,114.200 340.403 C 111.285 339.472,109.428 338.314,106.800 335.786 C 103.630 332.738,102.499 331.825,99.364 329.785 C 97.886 328.823,96.393 327.414,95.566 326.200 C 94.817 325.100,92.547 322.457,90.524 320.327 C 86.799 316.407,85.856 314.984,84.391 311.068 C 83.816 309.530,82.951 308.313,81.421 306.890 C 78.442 304.117,78.196 303.486,77.007 295.573 C 75.141 283.149,74.647 281.025,72.940 278.081 C 68.057 269.657,67.987 238.191,72.828 227.800 C 75.069 222.991,76.378 215.338,77.208 202.200 C 78.065 188.623,78.968 186.675,84.653 186.129 C 88.391 185.770,89.494 186.137,92.510 188.748 C 95.803 191.599,98.564 192.616,105.200 193.425 C 114.982 194.617,116.042 194.805,117.679 195.640 C 118.607 196.114,120.246 197.106,121.322 197.846 C 124.975 200.359,129.561 201.206,146.000 202.402 C 155.076 203.062,157.668 203.516,163.530 205.468 C 173.686 208.851,179.727 209.489,203.400 209.678 C 239.488 209.967,250.385 209.143,259.307 205.450 C 263.273 203.808,267.664 202.946,273.800 202.606 C 291.094 201.645,296.699 200.517,299.593 197.415 C 301.201 195.691,302.802 194.922,306.200 194.240 C 309.853 193.507,314.977 191.163,315.642 189.922 C 316.532 188.259,319.406 185.509,321.209 184.595 C 323.576 183.396,325.499 181.227,326.974 178.094 C 328.100 175.700,328.766 175.193,329.844 175.906 M310.016 185.856 C 311.643 187.483,306.757 190.872,302.811 190.853 C 296.590 190.824,295.273 187.439,300.918 185.989 C 301.843 185.751,302.780 185.482,303.000 185.390 C 303.834 185.042,309.584 185.424,310.016 185.856 M117.600 186.026 C 120.290 186.461,123.797 188.158,123.384 188.825 C 121.411 192.019,103.769 190.857,103.320 187.504 C 103.168 186.362,103.425 186.216,106.200 185.870 C 108.823 185.542,115.142 185.629,117.600 186.026 M278.600 194.000 C 285.796 194.410,286.647 194.574,286.914 195.593 C 287.890 199.326,265.579 200.799,257.478 197.536 C 252.895 195.691,266.963 193.336,278.600 194.000 M159.071 194.429 C 160.792 194.665,163.519 195.323,165.131 195.892 L 168.063 196.926 166.731 197.488 C 158.658 200.895,133.865 199.106,136.327 195.295 C 137.083 194.125,152.561 193.536,159.071 194.429 " stroke="none" fill="#625849" fill-rule="evenodd"></path><path id="path4" d="M134.800 32.646 C 130.543 33.571,127.808 35.118,125.889 37.687 C 123.744 40.560,118.139 40.731,114.774 38.027 C 112.670 36.336,112.219 36.444,109.436 39.307 C 107.667 41.127,106.441 42.008,104.958 42.526 C 103.815 42.925,101.966 44.077,100.758 45.143 C 96.433 48.959,94.395 49.452,92.454 47.151 C 88.248 42.164,86.544 41.832,84.030 45.506 C 82.936 47.106,81.614 47.809,79.000 48.181 C 76.198 48.580,73.923 49.668,72.777 51.157 C 70.869 53.637,69.664 54.751,67.943 55.626 C 65.214 57.014,61.821 59.428,60.561 60.877 C 59.929 61.605,57.744 63.836,55.706 65.835 C 49.289 72.128,52.065 75.530,64.379 76.464 C 72.127 77.052,75.194 75.746,77.340 70.946 C 77.993 69.487,79.302 68.400,80.407 68.400 C 80.609 68.400,81.395 69.369,82.153 70.553 C 84.561 74.318,86.312 75.204,92.928 76.008 C 105.408 77.525,107.965 75.602,109.606 63.459 C 110.519 56.697,111.137 53.600,111.570 53.600 C 112.611 53.600,113.608 55.721,114.378 59.576 C 115.985 67.612,118.461 69.768,124.741 68.598 C 126.423 68.284,129.388 67.835,131.329 67.599 C 139.535 66.602,141.719 63.403,138.059 57.740 C 134.263 51.867,135.776 48.167,140.196 52.516 C 141.813 54.108,143.048 54.828,146.600 56.253 C 154.789 59.538,156.076 59.487,158.825 55.766 C 160.850 53.025,161.479 52.635,165.447 51.655 C 173.370 49.699,174.778 48.029,173.724 41.835 C 172.715 35.907,171.125 34.663,162.936 33.397 C 154.008 32.016,139.479 31.628,134.800 32.646 M141.827 36.966 C 142.912 37.278,144.610 37.659,145.600 37.814 C 146.590 37.969,148.316 38.436,149.435 38.852 C 150.555 39.269,153.922 40.118,156.919 40.741 C 166.635 42.758,169.097 46.068,162.316 47.997 C 160.712 48.453,158.320 49.339,157.000 49.966 C 153.496 51.631,153.690 51.626,149.431 50.181 C 144.364 48.461,142.864 47.081,142.196 43.520 C 141.862 41.739,140.835 40.755,138.100 39.593 C 135.772 38.605,135.738 38.552,136.623 37.289 C 137.364 36.231,138.928 36.134,141.827 36.966 M133.023 45.649 C 133.708 46.968,133.468 47.202,131.433 47.194 C 128.266 47.182,126.177 43.471,129.141 43.120 C 130.403 42.971,132.260 44.181,133.023 45.649 M121.625 45.613 C 122.050 45.841,122.739 46.696,123.156 47.513 C 124.120 49.402,125.126 50.304,127.940 51.800 C 130.770 53.305,131.266 54.309,131.341 58.688 C 131.415 62.965,131.038 63.333,125.641 64.257 C 118.999 65.393,118.398 64.520,118.275 53.542 C 118.186 45.623,118.823 44.114,121.625 45.613 M89.426 52.050 C 90.050 53.258,89.826 57.910,88.924 62.470 C 88.645 63.880,86.639 64.811,85.764 63.936 C 84.925 63.096,85.143 57.736,86.213 52.910 C 86.363 52.231,87.863 50.964,88.690 50.816 C 88.739 50.807,89.070 51.363,89.426 52.050 M80.564 54.200 C 80.848 55.332,80.484 57.200,79.979 57.200 C 79.796 57.200,79.334 57.727,78.953 58.371 C 78.573 59.016,77.932 59.629,77.531 59.734 C 77.129 59.839,76.800 60.236,76.800 60.616 C 76.800 60.996,76.175 62.533,75.411 64.032 C 74.647 65.531,73.824 67.546,73.581 68.510 C 72.671 72.123,71.920 72.584,66.739 72.712 C 59.068 72.901,57.733 71.143,62.548 67.191 C 64.136 65.887,66.047 64.005,66.793 63.010 C 68.450 60.798,70.772 59.602,73.426 59.594 C 76.070 59.586,76.402 59.296,76.756 56.686 C 77.217 53.291,79.897 51.541,80.564 54.200 M104.193 58.787 C 107.043 64.411,102.656 71.200,96.172 71.200 C 94.040 71.200,92.264 70.151,92.565 69.070 C 92.698 68.591,92.994 66.850,93.223 65.200 C 94.173 58.342,95.430 56.800,100.072 56.800 L 103.187 56.800 104.193 58.787 M120.724 81.335 C 115.867 83.154,114.603 111.649,119.046 119.170 C 122.588 125.166,124.973 114.392,125.240 91.185 C 125.319 84.266,123.499 80.295,120.724 81.335 M127.430 126.900 C 125.541 129.787,125.015 133.119,124.405 146.042 C 123.836 158.112,124.963 163.600,128.010 163.600 C 128.240 163.600,128.827 163.856,129.314 164.168 C 130.899 165.184,132.882 163.870,133.494 161.397 C 134.206 158.524,134.380 139.023,133.700 138.341 C 133.425 138.066,133.200 137.503,133.200 137.091 C 133.200 136.680,132.935 136.078,132.610 135.753 C 131.816 134.959,130.400 130.272,130.400 128.438 C 130.400 126.029,128.607 125.101,127.430 126.900 M130.759 142.933 C 131.330 146.212,131.326 153.944,130.753 156.223 C 130.168 158.546,128.373 158.844,127.639 156.740 C 126.450 153.330,127.456 140.968,128.945 140.676 C 129.415 140.584,129.917 140.484,130.059 140.454 C 130.201 140.425,130.516 141.540,130.759 142.933 " stroke="none" fill="#7c2845" fill-rule="evenodd"></path></g></svg>